<?xml version="1.0" encoding="UTF-8" standalone="no" ?>
<!DOCTYPE svg PUBLIC "-//W3C//DTD SVG 1.1//EN" "http://www.w3.org/Graphics/SVG/1.1/DTD/svg11.dtd">
<svg xmlns="http://www.w3.org/2000/svg" xmlns:xlink="http://www.w3.org/1999/xlink" version="1.1" width="1080" height="1080" viewBox="0 0 1080 1080" xml:space="preserve">
<desc>Created with Fabric.js 5.2.4</desc>
<defs>
</defs>
<g transform="matrix(1 0 0 1 540 540)" id="de6da416-4196-48dd-aa92-b7d085e4accc"  >
<rect style="stroke: none; stroke-width: 1; stroke-dasharray: none; stroke-linecap: butt; stroke-dashoffset: 0; stroke-linejoin: miter; stroke-miterlimit: 4; fill: rgb(255,255,255); fill-rule: nonzero; opacity: 1; visibility: hidden;" vector-effect="non-scaling-stroke"  x="-540" y="-540" rx="0" ry="0" width="1080" height="1080" />
</g>
<g transform="matrix(1 0 0 1 540 540)" id="b793744c-a615-4a4a-bfce-9e22a4138715"  >
</g>
<g transform="matrix(21.21 0 0 21.21 541.88 540.35)"  >
<g style="" vector-effect="non-scaling-stroke"   >
		<g transform="matrix(1 0 0 1 0 0)"  >
<path style="stroke: none; stroke-width: 1; stroke-dasharray: none; stroke-linecap: butt; stroke-dashoffset: 0; stroke-linejoin: miter; stroke-miterlimit: 4; fill: rgb(255,255,255); fill-rule: evenodd; opacity: 1;" vector-effect="non-scaling-stroke"  transform=" translate(-24.37, -25.09)" d="M 30.452 3.237 C 27.095462651332014 -0.11944591004114491 21.65353734866799 -0.11944591004114224 18.297 3.2370000000000037 L 2.517 19.016 C 0.9048695849362269 20.627909082648358 -0.0008344600463590091 22.81425980298237 -0.0008344600463590091 25.093999999999998 C -0.0008344600463590091 27.373740197017625 0.9048695849362274 29.560090917351637 2.517000000000001 31.171999999999997 L 18.297 46.95099999999999 C 21.65353734866799 50.30744591004114 27.095462651332014 50.30744591004114 30.451999999999998 46.95099999999999 L 46.232 31.170999999999992 C 49.588445910041145 27.814462651332004 49.588445910041145 22.37253734866798 46.232 19.01599999999999 L 30.451999999999998 3.2359999999999918 z M 24.374000000000002 36.697 C 30.784000000000002 36.697 35.978 31.502000000000002 35.978 25.094 C 35.978 18.685000000000002 30.783 13.490000000000002 24.374000000000002 13.490000000000002 C 17.966 13.490000000000002 12.771000000000003 18.685000000000002 12.771000000000003 25.094 C 12.771000000000003 31.502000000000002 17.966 36.697 24.375 36.697 z" stroke-linecap="round" />
</g>
		<g transform="matrix(1 0 0 1 0.12 0.12)"  >
<circle style="stroke: rgb(255,255,255); stroke-opacity: 0.5; stroke-width: 2.579; stroke-dasharray: none; stroke-linecap: butt; stroke-dashoffset: 0; stroke-linejoin: miter; stroke-miterlimit: 4; fill: none; fill-rule: nonzero; opacity: 1;" vector-effect="non-scaling-stroke"  cx="0" cy="0" r="7.736" />
</g>
		<g transform="matrix(1 0 0 1 0.12 0.12)"  >
<circle style="stroke: none; stroke-width: 1; stroke-dasharray: none; stroke-linecap: butt; stroke-dashoffset: 0; stroke-linejoin: miter; stroke-miterlimit: 4; fill: rgb(255,255,255); fill-opacity: 0.8; fill-rule: nonzero; opacity: 1;" vector-effect="non-scaling-stroke"  cx="0" cy="0" r="3.868" />
</g>
</g>
</g>
<g transform="matrix(8.67 0 0 8.67 540 540)" id="deecca00-72cd-4e94-b0fa-d31fb46ae34f"  >
<circle style="stroke: rgb(0,0,0); stroke-width: 0; stroke-dasharray: none; stroke-linecap: butt; stroke-dashoffset: 0; stroke-linejoin: miter; stroke-miterlimit: 4; fill: rgb(255,255,255); fill-rule: nonzero; opacity: 1;" vector-effect="non-scaling-stroke"  cx="0" cy="0" r="35" />
</g>
<g transform="matrix(30.45 0 0 30.45 540 490.16)" id="24520b73-4c44-4ca0-a537-17cf868adc2d"  >
<path style="stroke: rgb(0,0,0); stroke-width: 0; stroke-dasharray: none; stroke-linecap: butt; stroke-dashoffset: 0; stroke-linejoin: miter; stroke-miterlimit: 4; fill: rgb(0,0,0); fill-rule: nonzero; opacity: 1;" vector-effect="non-scaling-stroke"  transform=" translate(-12, -12)" d="M 9.144 20.782 L 9.144 17.715 C 9.144 16.938 9.776 16.307 10.558 16.302 L 13.433 16.302 C 14.219 16.302 14.856 16.935 14.856 17.715 L 14.856 20.773 C 14.856 21.447 15.404 21.995 16.083 22 L 18.043 22 C 18.957832595791814 22.00287610513215 19.836571195195422 21.643326760040658 20.487 21 C 21.13436627716026 20.360210853506995 21.4990961341055 19.48817164963595 21.5 18.578 L 21.5 9.866 C 21.5 9.131 21.172 8.434999999999999 20.605 7.9639999999999995 L 13.943000000000001 2.6739999999999995 C 12.776308026535599 1.7485250602110782 11.117749057211174 1.7782768759821823 9.985000000000001 2.744999999999999 L 3.467 7.963 C 2.8732463891198443 8.418714022092546 2.51772239560292 9.118732309224113 2.5000000000000004 9.867000000000003 L 2.5 18.57 C 2.5 20.464 4.047 22 5.956 22 L 7.872 22 C 8.199 22.002 8.513 21.875 8.745 21.646 C 8.976999999999999 21.418 9.107999999999999 21.106 9.107999999999999 20.782 L 9.143999999999998 20.782 z" stroke-linecap="round" />
</g>
</svg>